<?xml version="1.0" standalone="no"?><!DOCTYPE svg PUBLIC "-//W3C//DTD SVG 1.1//EN" "http://www.w3.org/Graphics/SVG/1.1/DTD/svg11.dtd"><svg t="1530793332152" class="icon" style="" viewBox="0 0 1024 1024" version="1.1" xmlns="http://www.w3.org/2000/svg" p-id="1991" xmlns:xlink="http://www.w3.org/1999/xlink" width="200" height="200"><defs><style type="text/css"></style></defs><path d="M552.3 230.1h-87.9c-10.8 0-19.5-8.7-19.5-19.5v-127c0-10.8 8.7-19.5 19.5-19.5h87.9c10.8 0 19.5 8.7 19.5 19.5v127c0.1 10.8-8.7 19.5-19.5 19.5zM483.9 191h48.8v-87.9h-48.8V191zM257.2 959.6c-4.2 0-7.9-2.7-9.2-6.6-23.3-67.5-22.9-141.6 1.2-208.8l147.4-410.7c1.2-3.3 4-5.7 7.5-6.3 3.4-0.6 7 0.7 9.2 3.3l50.8 60.6c2.2 2.7 2.9 6.3 1.7 9.6L266.4 953.1c-1.4 3.9-5.1 6.5-9.2 6.5z m152-603.6L267.6 750.8c-19.3 53.7-22.4 112.2-9.4 167.4l187.3-518.9-36.3-43.3zM762.3 959.6c-4.1 0-7.8-2.6-9.2-6.4L553.7 400.6c-1.2-3.3-0.5-6.9 1.7-9.6l50.8-60.6c2.2-2.7 5.8-4 9.2-3.3 3.4 0.6 6.3 3 7.5 6.3l147.4 410.7c24.1 67.2 24.6 141.3 1.2 208.8-1.3 4-5 6.6-9.2 6.7 0.1 0 0 0 0 0zM574 399.3l187.3 518.9c13-55.3 9.9-113.7-9.4-167.4L610.3 356 574 399.3z" p-id="1992"></path><path d="M547.8 435.3h-78.9c-6.5 0-12.6-3.3-16.3-8.7l-63.1-94.7c-2.1-3.2-3.3-7-3.3-10.8V210.6c0-10.8 8.7-19.5 19.5-19.5h205.1c10.8 0 19.5 8.7 19.5 19.5V321c0 3.9-1.1 7.6-3.3 10.8l-63.1 94.7c-3.4 5.5-9.5 8.8-16.1 8.8z m-68.4-39.1h58l54-81.1v-85H425.3v85l54.1 81.1zM646.8 649.8H369.9c-5.4 0-9.8-4.4-9.8-9.8s4.4-9.8 9.8-9.8h276.9c5.4 0 9.8 4.4 9.8 9.8s-4.4 9.8-9.8 9.8z" p-id="1993"></path><path d="M508.4 679.5c-5.4 0-9.8-4.4-9.8-9.8v-58.6c0-5.4 4.4-9.8 9.8-9.8s9.8 4.4 9.8 9.8v58.6c-0.1 5.4-4.4 9.8-9.8 9.8z" p-id="1994"></path></svg>