<?xml version="1.0" standalone="no"?><!DOCTYPE svg PUBLIC "-//W3C//DTD SVG 1.1//EN" "http://www.w3.org/Graphics/SVG/1.1/DTD/svg11.dtd"><svg t="1530799443307" class="icon" style="" viewBox="0 0 1024 1024" version="1.1" xmlns="http://www.w3.org/2000/svg" p-id="2020" xmlns:xlink="http://www.w3.org/1999/xlink" width="200" height="200"><defs><style type="text/css"></style></defs><path d="M793.714286 596q17.714286 17.142857 8 39.428571-9.714286 22.857143-33.714286 22.857143l-218.285714 0 114.857143 272q5.714286 14.285714 0 28t-19.428571 20l-101.142857 42.857143q-14.285714 5.714286-28 0t-20-19.428571l-109.142857-258.285714-178.285714 178.285714q-10.857143 10.857143-25.714286 10.857143-6.857143 0-13.714286-2.857143-22.857143-9.714286-22.857143-33.714286l0-859.428571q0-24 22.857143-33.714286 6.857143-2.857143 13.714286-2.857143 15.428571 0 25.714286 10.857143z" p-id="2021"></path></svg>